<svg xmlns="http://www.w3.org/2000/svg" version="1.1" xmlns:xlink="http://www.w3.org/1999/xlink" xmlns:svgjs="http://svgjs.dev/svgjs" width="1500" height="1500" viewBox="0 0 1500 1500"><rect width="1500" height="1500" fill="#ffffff"></rect><g transform="matrix(0.6666666666666666,0,0,0.6666666666666666,249.39393939393938,584.6345201382021)"><svg viewBox="0 0 396 131" data-background-color="#ffffff" preserveAspectRatio="xMidYMid meet" height="496" width="1500" xmlns="http://www.w3.org/2000/svg" xmlns:xlink="http://www.w3.org/1999/xlink"><g id="tight-bounds" transform="matrix(1,0,0,1,0.2400000000000091,0.012735469442134217)"><svg viewBox="0 0 395.52 130.97452906111573" height="130.97452906111573" width="395.52"><g><svg viewBox="0 0 395.52 130.97452906111573" height="130.97452906111573" width="395.52"><g><svg viewBox="0 0 395.52 130.97452906111573" height="130.97452906111573" width="395.52"><g id="textblocktransform"><svg viewBox="0 0 395.52 130.97452906111573" height="130.97452906111573" width="395.52" id="textblock"><g><rect width="395.52" height="98.98239966694422" fill="none" stroke-width="9.018103199999999" stroke="#000000" data-fill-palette-color="none" data-stroke-palette-color="tertiary"></rect><rect width="395.52" height="31.992129394171524" y="98.98239966694422" fill="#000000" data-fill-palette-color="tertiary"></rect></g><g><svg viewBox="0 0 395.52 98.98239966694422" height="98.98239966694422" width="395.52"><g transform="matrix(1,0,0,1,23.607599999999998,23.6076)"><svg width="348.3048" viewBox="6.5 -35 240.18 35.7" height="51.767199666944215" data-palette-color="#000000"><path d="M21.9 0L6.5 0 6.5-35 21.75-35 21.75-32.55 13-33.7Q10.7-34 9.9-34L9.9-34 9.9-18.75Q10.55-18.75 13-18.9L13-18.9 21.2-19.4 21.2-17.1 13-17.6Q10.55-17.75 9.9-17.75L9.9-17.75 9.9-1Q10.8-1 13.05-1.3L13.05-1.3 21.9-2.45 21.9 0ZM32.4 0L32.4-35 35.8-35 35.8-1Q36.75-1 38.8-1.3L38.8-1.3 47.1-2.55 47.1 0 32.4 0ZM66.45 0L55.45 0 55.45-35 66.45-35Q72.25-35 76.55-32.8 80.85-30.6 83.25-26.68 85.65-22.75 85.65-17.5L85.65-17.5Q85.65-12.25 83.25-8.33 80.85-4.4 76.55-2.2 72.25 0 66.45 0L66.45 0ZM66.45-33.8L66.45-33.8 58.85-33.8 58.85-1.2 66.45-1.2Q73.7-1.2 77.77-5.5 81.84-9.8 81.84-17.5L81.84-17.5Q81.84-25.2 77.77-29.5 73.7-33.8 66.45-33.8ZM111.54 0L96.14 0 96.14-35 111.39-35 111.39-32.55 102.64-33.7Q100.34-34 99.54-34L99.54-34 99.54-18.75Q100.19-18.75 102.64-18.9L102.64-18.9 110.84-19.4 110.84-17.1 102.64-17.6Q100.19-17.75 99.54-17.75L99.54-17.75 99.54-1Q100.44-1 102.69-1.3L102.69-1.3 111.54-2.45 111.54 0ZM122.04 0L122.04-35 128.74-35Q134.04-35 136.97-32.77 139.89-30.55 139.89-26.55L139.89-26.55Q139.89-23.45 138.07-21.4 136.24-19.35 132.79-18.65L132.79-18.65 132.79-18.35Q136.09-17.7 138.19-15.25 140.29-12.8 141.34-9.2L141.34-9.2Q142.29-5.9 143.22-4.08 144.14-2.25 145.27-1.45 146.39-0.65 147.94-0.3L147.94-0.3 147.94 0 145.89 0Q143.69 0 142.27-0.8 140.84-1.6 139.84-3.5 138.84-5.4 137.94-8.75L137.94-8.75Q136.49-13.9 134.09-16.05 131.69-18.2 128.24-18.2L128.24-18.2 127.94-18.2 127.94-19.1 128.24-19.1Q136.29-19.1 136.29-26.5L136.29-26.5Q136.29-33.8 128.74-33.8L128.74-33.8 125.44-33.8 125.44 0 122.04 0ZM162.24 0.7L147.84-35 151.49-35 163.74-4.4 164.04-4.4 172.04-24.2 167.69-35 171.34-35 183.54-4.5 183.84-4.5 193.94-35 197.59-35 183.19 0.7 182.09 0.7 172.74-22.55 163.34 0.7 162.24 0.7ZM220.79 0L205.39 0 205.39-35 220.64-35 220.64-32.55 211.89-33.7Q209.59-34 208.79-34L208.79-34 208.79-18.75Q209.44-18.75 211.89-18.9L211.89-18.9 220.09-19.4 220.09-17.1 211.89-17.6Q209.44-17.75 208.79-17.75L208.79-17.75 208.79-1Q209.69-1 211.94-1.3L211.94-1.3 220.79-2.45 220.79 0ZM246.68 0L231.28 0 231.28-35 246.53-35 246.53-32.55 237.78-33.7Q235.48-34 234.68-34L234.68-34 234.68-18.75Q235.33-18.75 237.78-18.9L237.78-18.9 245.98-19.4 245.98-17.1 237.78-17.6Q235.33-17.75 234.68-17.75L234.68-17.75 234.68-1Q235.58-1 237.83-1.3L237.83-1.3 246.68-2.45 246.68 0Z" opacity="1" transform="matrix(1,0,0,1,0,0)" fill="#000000" class="wordmark-text-0" data-fill-palette-color="primary" id="text-0"></path></svg></g></svg></g></svg></g></svg></g></svg></g><defs></defs></svg><rect width="395.52" height="130.97452906111573" fill="none" stroke="none" visibility="hidden"></rect></g></svg></g></svg>